<svg xmlns="http://www.w3.org/2000/svg" width="113" height="16" viewBox="0 0 113 16"><g><g><path fill="#fff" d="M105 5.23v2.735h1.675V16h3.222V7.93h2.248l.24-2.7h-2.488V3.691c0-.637.128-.89.744-.89h1.743V0h-2.23c-2.398 0-3.479 1.055-3.479 3.076V5.23z"/></g><g><path fill="#fff" d="M46.568 0C42.2 0 40 3.13 40 5.74c0 1.581.598 2.988 1.882 3.512.21.085.399.002.46-.23.042-.161.143-.569.187-.738.062-.23.038-.311-.132-.512-.37-.437-.606-1.002-.606-1.803 0-2.322 1.737-4.4 4.524-4.4 2.468 0 3.824 1.507 3.824 3.52 0 2.65-1.172 4.887-2.913 4.887-.962 0-1.681-.795-1.45-1.77.276-1.164.81-2.42.81-3.261 0-.752-.403-1.38-1.239-1.38-.983 0-1.772 1.017-1.772 2.379 0 .867.293 1.454.293 1.454l-1.182 5.008c-.351 1.486-.053 3.308-.028 3.492.015.11.155.135.219.053.09-.119 1.261-1.563 1.659-3.008.112-.409.646-2.526.646-2.526.32.61 1.253 1.146 2.245 1.146 2.955 0 4.96-2.693 4.96-6.298 0-2.727-2.31-5.265-5.82-5.265z"/></g><g><path fill="#fff" d="M87 2.539a6.567 6.567 0 0 1-1.885.516 3.291 3.291 0 0 0 1.443-1.816 6.564 6.564 0 0 1-2.085.797A3.278 3.278 0 0 0 82.077 1c-2.119 0-3.676 1.977-3.198 4.03a9.32 9.32 0 0 1-6.765-3.43 3.286 3.286 0 0 0 1.015 4.383 3.262 3.262 0 0 1-1.487-.41c-.035 1.52 1.055 2.942 2.633 3.26a3.276 3.276 0 0 1-1.482.055 3.287 3.287 0 0 0 3.067 2.28 6.605 6.605 0 0 1-4.86 1.36 9.292 9.292 0 0 0 5.031 1.474c6.095 0 9.538-5.147 9.33-9.764A6.68 6.68 0 0 0 87 2.539z"/></g><g><path fill="#fff" d="M14.154 6.768v6.77c0 .34-.276.614-.616.614H2.461a.615.615 0 0 1-.616-.614v-6.77h1.393A4.929 4.929 0 0 0 3.077 8a4.923 4.923 0 1 0 9.845 0c0-.425-.06-.837-.161-1.23zm.123-4.283v1.92a.64.64 0 0 1-.64.64h-1.92a.64.64 0 0 1-.64-.64v-1.92a.64.64 0 0 1 .64-.64h1.92a.64.64 0 0 1 .64.64zM8 4.922a3.077 3.077 0 1 1 0 6.154 3.077 3.077 0 0 1 0-6.154zM14.154 16c1.02 0 1.846-.827 1.846-1.848V1.846C16 .826 15.173 0 14.154 0H1.845C.826 0 0 .826 0 1.846v12.306C0 15.172.826 16 1.845 16z"/></g></g></svg>